<svg xmlns="http://www.w3.org/2000/svg" viewBox="0 0 64 64">
  <title>LH — Ascensão</title>
  <!-- Two flowing shapes that together read as "LH" -->
  <!-- Left shape: stylized L — vertical stroke with curved base flowing right -->
  <path d="M14 7 C13 7, 11 9, 11 11 L11 49 C11 55, 15 57, 19 57 L27 57 C29 57, 29 53, 27 53 L19 53 C17 53, 15 51, 15 49 L15 11 C15 9, 16 7, 14 7Z" fill="#2563EB"/>
  <!-- Right shape: stylized H — two verticals with curved crossbar -->
  <path d="M33 7 C31 7, 31 9, 31 11 L31 53 C31 55, 33 57, 35 57 C37 57, 37 55, 37 53 L37 35 L47 35 L47 53 C47 55, 49 57, 51 57 C53 57, 53 55, 53 53 L53 11 C53 9, 53 7, 51 7 C49 7, 49 9, 49 11 L49 31 L37 31 L37 11 C37 9, 35 7, 33 7Z" fill="#2563EB"/>
</svg>
