<svg xmlns="http://www.w3.org/2000/svg" viewBox="0 0 64 64">
  <title>LH — Sinapse I</title>
  <!-- Two smooth crescents that almost touch — the gap is where intelligence flows -->
  <!-- Left crescent: the L — flows down with a confident curve, base hooks right -->
  <path d="
    M18 6
    C12 6, 8 14, 8 24
    C8 38, 10 48, 16 52
    C20 55, 26 55, 29 52
    C31 49, 29 44, 26 44
    C22 44, 18 42, 16 36
    C13 26, 14 14, 20 10
    C22 8, 22 6, 18 6Z
  " fill="#2563EB"/>
  <!-- Right crescent: the H — two lobes connected by a pinch (crossbar) -->
  <path d="
    M46 6
    C50 6, 54 14, 54 24
    C54 28, 52 31, 48 32
    C52 33, 54 36, 54 40
    C54 50, 50 58, 46 58
    C42 58, 38 50, 38 40
    C38 36, 40 33, 44 32
    C40 31, 38 28, 38 24
    C38 14, 42 6, 46 6Z
  " fill="#2563EB"/>
</svg>
